<svg fill="none"
		 height="14"
		 viewBox="0 0 14 14"
		 width="14"
		 xmlns="http://www.w3.org/2000/svg">
	<path d="M7 0C3.14005 0 0 3.14005 0 7C0 10.86 3.14005 14 7 14C10.86 14 14 10.86 14 7C14 3.14005 10.86 0 7 0Z"
				fill="#20B7F7"/>
	<path
		d="M9.29414 6.28571H7.71429V4.70586C7.71429 4.31771 7.38829 4 7 4C6.61171 4 6.28571 4.31771 6.28571 4.70586V6.28571H4.70586C4.31771 6.28571 4 6.61171 4 7C4 7.38829 4.31771 7.71429 4.70586 7.71429H6.28571V9.29414C6.28571 9.68229 6.61171 10 7 10C7.38829 10 7.71429 9.68229 7.71429 9.29414V7.71429H9.29414C9.68229 7.71429 10 7.38829 10 7C10 6.61171 9.68229 6.28571 9.29414 6.28571Z"
		fill="white"/>
</svg>
